Land_normalized_Precision Landing14_filtered_grf
version=1
nRows=10
nColumns=37
inDegrees=yes
endheader
time		1_ground_force_vx		1_ground_force_vy		1_ground_force_vz		1_ground_force_px		1_ground_force_py		1_ground_force_pz		1_ground_torque_x		1_ground_torque_y		1_ground_torque_z		2_ground_force_vx		2_ground_force_vy		2_ground_force_vz		2_ground_force_px		2_ground_force_py		2_ground_force_pz		2_ground_torque_x		2_ground_torque_y		2_ground_torque_z		3_ground_force_vx		3_ground_force_vy		3_ground_force_vz		3_ground_force_px		3_ground_force_py		3_ground_force_pz		3_ground_torque_x		3_ground_torque_y		3_ground_torque_z		4_ground_force_vx		4_ground_force_vy		4_ground_force_vz		4_ground_force_px		4_ground_force_py		4_ground_force_pz		4_ground_torque_x		4_ground_torque_y		4_ground_torque_z		
1.074500		-29.824272		876.900756		188.135290		0.106170		0.000000		0.313126		-0.391688		11.516506		2.470817		35.172185		745.276563		88.442331		-0.152314		0.000000		0.346656		0.709698		15.038061		1.784574		5.647224		-0.942174		-0.893207		0.353239		1.255249		1.891710		0.000241		-0.000040		-0.000038		-18.249715		0.613197		-3.051270		-0.289174		1.264826		1.901354		-0.000209		0.000007		-0.000035		
1.077606		-29.948905		866.292149		188.042010		0.106334		0.000000		0.313544		-0.394280		11.404810		2.475589		32.877349		752.652589		83.811606		-0.151876		0.000000		0.347270		0.622200		14.243605		1.586115		5.558867		-0.841304		-0.781010		0.353301		1.255250		1.891645		-0.003567		0.000539		0.000501		-18.384278		0.524948		-2.939141		-0.289151		1.264818		1.901301		-0.000785		0.000022		-0.000125		
1.080712		-30.314376		853.646962		188.016736		0.106488		0.000000		0.313856		-0.398294		11.215886		2.470311		30.771149		757.389131		80.852623		-0.151523		0.000000		0.347677		0.557174		13.713853		1.463988		5.370690		-0.746519		-0.661214		0.353358		1.255247		1.891589		-0.008367		0.001163		0.001030		-18.472445		0.444013		-2.772454		-0.289133		1.264812		1.901252		-0.000287		0.000007		-0.000043		
1.083818		-30.805772		839.616093		188.045627		0.106578		0.000000		0.314018		-0.402810		10.978666		2.458849		28.814509		759.525112		79.271904		-0.151229		0.000000		0.347928		0.508503		13.403577		1.398938		5.132067		-0.684746		-0.567913		0.353406		1.255240		1.891542		-0.013132		0.001752		0.001453		-18.505713		0.384995		-2.623469		-0.289114		1.264809		1.901204		0.001580		-0.000033		0.000224		
1.086924		-31.343783		825.107990		188.100842		0.106606		0.000000		0.314069		-0.407087		10.716356		2.443019		27.135382		759.214132		78.567279		-0.151001		0.000000		0.348102		0.473140		13.237843		1.369918		4.906019		-0.666994		-0.519142		0.353443		1.255230		1.891503		-0.010572		0.018182		0.039046		-18.487043		0.350453		-2.538586		-0.289095		1.264810		1.901158		0.004794		-0.000090		0.000658		
1.090030		-31.876699		811.203569		188.102774		0.106633		0.000000		0.314138		-0.411275		10.466184		2.426910		26.072059		756.648512		78.320508		-0.150889		0.000000		0.348271		0.453471		13.160402		1.362230		4.748572		-0.684114		-0.511309		0.353468		1.255220		1.891470		-0.013275		0.009369		0.036298		-18.429185		0.336485		-2.515552		-0.289075		1.264815		1.901116		0.008807		-0.000161		0.001203		
1.093136		-32.382224		798.967094		187.864324		0.106744		0.000000		0.314369		-0.416384		10.273447		2.415636		26.045645		752.050314		78.345206		-0.150958		0.000000		0.348478		0.455537		13.153295		1.370252		4.691722		-0.712423		-0.526523		0.353480		1.255213		1.891438		-0.013176		0.000323		0.035533		-18.352297		0.340921		-2.512761		-0.289052		1.264825		1.901075		0.012784		-0.000238		0.001750		
1.096242		-32.898451		789.210038		187.101804		0.106996		0.000000		0.314842		-0.423982		10.171019		2.411293		27.349948		745.711757		78.617361		-0.151266		0.000000		0.348741		0.484841		13.219344		1.393664		4.731099		-0.726347		-0.544003		0.353486		1.255209		1.891404		-0.010559		-0.006271		0.036934		-18.282274		0.368024		-2.480656		-0.289030		1.264835		1.901040		0.016059		-0.000323		0.002179		
1.099348		-33.526532		782.392368		185.514548		0.107395		0.000000		0.315540		-0.435759		10.169078		2.411209		30.039074		737.976197		79.089817		-0.151828		0.000000		0.349068		0.543416		13.350023		1.430742		4.830160		-0.709970		-0.547808		0.353492		1.255209		1.891366		-0.006331		-0.008663		0.039630		-18.244442		0.425820		-2.392982		-0.289009		1.264846		1.901009		0.018324		-0.000428		0.002403		
1.102455		-34.379300		778.643133		182.869434		0.107903		0.000000		0.316379		-0.452607		10.250890		2.407488		33.942844		729.228555		79.566177		-0.152620		0.000000		0.349480		0.628710		13.507111		1.473763		4.938936		-0.663851		-0.529655		0.353500		1.255208		1.891323		-0.001612		-0.006455		0.042393		-18.251777		0.516500		-2.259750		-0.288992		1.264856		1.900983		0.019507		-0.000552		0.002415		
